<svg width="121" height="25" viewBox="0 0 121 25" fill="none" xmlns="http://www.w3.org/2000/svg">
<g clip-path="url(#clip0_107_2)">
<path fill-rule="evenodd" clip-rule="evenodd" d="M57.3563 12.8342C57.3563 8.75557 55.3807 5.53725 51.6048 5.53725C47.8128 5.53725 45.5186 8.75557 45.5186 12.8024C45.5186 17.598 48.227 20.0197 52.1146 20.0197C54.0105 20.0197 55.4444 19.5895 56.5278 18.9841V15.7977C55.4444 16.3393 54.2017 16.6739 52.6244 16.6739C51.0789 16.6739 49.7088 16.1322 49.5335 14.2523H57.3245C57.3245 14.045 57.3563 13.2166 57.3563 12.8342ZM49.4858 11.3207C49.4858 9.52032 50.5851 8.77151 51.5889 8.77151C52.5607 8.77151 53.5963 9.52032 53.5963 11.3207H49.4858Z" fill="white"/>
<path fill-rule="evenodd" clip-rule="evenodd" d="M39.3688 5.53725C37.8074 5.53725 36.8036 6.27013 36.2461 6.77997L36.0389 5.79216H32.5339V24.3692L36.5168 23.5247L36.5329 19.0159C37.1064 19.4302 37.9508 20.0197 39.3528 20.0197C42.2047 20.0197 44.8017 17.7255 44.8017 12.6749C44.7858 8.05455 42.1569 5.53725 39.3688 5.53725ZM38.4128 16.5146C37.4728 16.5146 36.9153 16.18 36.5329 15.7657L36.5168 9.8549C36.9312 9.39285 37.5047 9.07421 38.4128 9.07421C39.8626 9.07421 40.8664 10.6993 40.8664 12.7864C40.8664 14.9214 39.8787 16.5146 38.4128 16.5146Z" fill="white"/>
<path fill-rule="evenodd" clip-rule="evenodd" d="M27.0531 4.59725L31.0521 3.7369V0.50265L27.0531 1.34706V4.59725Z" fill="white"/>
<path d="M31.0521 5.8081H27.0531V19.7488H31.0521V5.8081Z" fill="white"/>
<path fill-rule="evenodd" clip-rule="evenodd" d="M22.7674 6.98708L22.5124 5.8081H19.071V19.7488H23.0542V10.301C23.9941 9.07421 25.5873 9.29727 26.0812 9.47252V5.8081C25.5714 5.61691 23.7073 5.26641 22.7674 6.98708Z" fill="white"/>
<path fill-rule="evenodd" clip-rule="evenodd" d="M14.8011 2.35079L10.9136 3.17928L10.8977 15.941C10.8977 18.299 12.6661 20.0356 15.0241 20.0356C16.3306 20.0356 17.2866 19.7967 17.8123 19.5099V16.2756C17.3025 16.4827 14.7851 17.2157 14.7851 14.8576V9.20168H17.8123V5.8081H14.7851L14.8011 2.35079Z" fill="white"/>
<path fill-rule="evenodd" clip-rule="evenodd" d="M4.03088 9.8549C4.03088 9.23354 4.5407 8.99455 5.38511 8.99455C6.59597 8.99455 8.12547 9.36099 9.33633 10.0142V6.27013C8.01394 5.74436 6.7075 5.53725 5.38511 5.53725C2.15086 5.53725 -3.39746e-06 7.22607 -3.39746e-06 10.0461C-3.39746e-06 14.4434 6.05427 13.7423 6.05427 15.6383C6.05427 16.3712 5.41699 16.6102 4.52477 16.6102C3.20239 16.6102 1.51356 16.0685 0.175252 15.3356V19.1275C1.65695 19.7647 3.15459 20.0356 4.52477 20.0356C7.83869 20.0356 10.117 18.3946 10.117 15.5427C10.1011 10.7949 4.03088 11.6393 4.03088 9.8549Z" fill="white"/>
<path d="M64.5198 19.7497H69.464C73.9878 19.7497 76.7502 16.9474 76.7502 12.5636C76.7502 8.17992 73.9878 5.37754 69.464 5.37754H64.5198V19.7497ZM67.4023 17.2276V7.89968H69.444C72.2464 7.89968 73.8477 9.72122 73.8477 12.5636C73.8477 15.386 72.2464 17.2276 69.464 17.2276H67.4023Z" fill="#556CD6"/>
<path d="M79.1724 12.5636C79.1724 16.9073 82.0148 19.9699 85.9781 19.9699C89.9215 19.9699 92.7639 16.9073 92.7639 12.5636C92.7639 8.21995 89.9215 5.15735 85.9781 5.15735C82.0148 5.15735 79.1724 8.21995 79.1724 12.5636ZM89.8014 12.5636C89.8014 15.5061 88.22 17.3877 85.9781 17.3877C83.7162 17.3877 82.1349 15.5061 82.1349 12.5636C82.1349 9.62114 83.7162 7.73954 85.9781 7.73954C88.22 7.73954 89.8014 9.62114 89.8014 12.5636Z" fill="#556CD6"/>
<path d="M98.0163 12.5636C98.0163 9.64115 99.5577 7.73954 101.76 7.73954C103.321 7.73954 104.462 8.72037 104.862 10.3217L107.624 9.40095C106.784 6.79874 104.742 5.15735 101.76 5.15735C97.8763 5.15735 95.0539 8.21995 95.0539 12.5636C95.0539 16.9073 97.8763 19.9699 101.76 19.9699C104.742 19.9699 106.784 18.3285 107.624 15.7263L104.862 14.8055C104.462 16.4069 103.321 17.3877 101.76 17.3877C99.5577 17.3877 98.0163 15.4861 98.0163 12.5636Z" fill="#556CD6"/>
<path d="M109.203 17.1275C110.364 18.869 112.886 19.9699 115.308 19.9699C118.371 19.9699 120.933 18.2284 120.933 15.326C120.933 12.1833 118.13 11.6028 115.848 11.1024C113.967 10.682 112.926 10.4618 112.926 9.3409C112.926 8.30002 113.887 7.61944 115.288 7.61944C116.889 7.61944 118.01 8.42012 118.851 9.60112L120.793 7.69951C119.792 6.25829 117.85 5.15735 115.368 5.15735C112.386 5.15735 110.024 6.87881 110.024 9.62114C110.024 12.4635 112.345 13.1441 114.487 13.6446C116.649 14.125 118.01 14.3051 118.01 15.6262C118.01 16.8473 116.909 17.5078 115.408 17.5078C113.827 17.5078 112.285 16.6671 111.225 15.1658L109.203 17.1275Z" fill="#556CD6"/>
</g>
<defs>
<clipPath id="clip0_107_2">
<rect width="121" height="25" fill="white"/>
</clipPath>
</defs>
</svg>
